{
  "accessors": [
    {
      "bufferView": 1,
      "componentType": 5126,
      "count": 11761,
      "max": [
        74.63825225830078,
        259.7181396484375,
        63.480262756347656
      ],
      "min": [
        -63.5,
        -0.0,
        -63.480262756347656
      ],
      "type": "VEC3"
    },
    {
      "bufferView": 1,
      "byteOffset": 141132,
      "componentType": 5126,
      "count": 11761,
      "max": [
        0.9999997019767761,
        1.0,
        1.0
      ],
      "min": [
        -0.9999997019767761,
        -1.0,
        -1.0
      ],
      "type": "VEC3"
    },
    {
      "bufferView": 0,
      "componentType": 5125,
      "count": 58032,
      "type": "SCALAR"
    }
  ],
  "asset": {
    "extras": {
      "author": "Steven Samuel (https://sketchfab.com/spsvision)",
      "license": "CC-BY-4.0 (http://creativecommons.org/licenses/by/4.0/)",
      "source": "https://sketchfab.com/3d-models/piston-full-bf600da36ad44fd7a7c96ceb0c732cf5",
      "title": "Piston Full"
    },
    "generator": "Sketchfab-12.68.0",
    "version": "2.0"
  },
  "bufferViews": [
    {
      "buffer": 0,
      "byteLength": 232128,
      "name": "floatBufferViews",
      "target": 34963
    },
    {
      "buffer": 0,
      "byteLength": 282264,
      "byteOffset": 232128,
      "byteStride": 12,
      "name": "floatBufferViews",
      "target": 34962
    }
  ],
  "buffers": [
    {
      "byteLength": 514392,
      "uri": "scene.bin"
    }
  ],
  "materials": [
    {
      "doubleSided": true,
      "name": "piston_pinMaterial0",
      "pbrMetallicRoughness": {
        "baseColorFactor": [
          0.805728766945202,
          0.8678937917023745,
          0.8834365490119371,
          1.0
        ],
        "roughnessFactor": 0.365951942311317
      }
    }
  ],
  "meshes": [
    {
      "name": "Object_0",
      "primitives": [
        {
          "attributes": {
            "NORMAL": 1,
            "POSITION": 0
          },
          "indices": 2,
          "material": 0,
          "mode": 4
        }
      ]
    }
  ],
  "nodes": [
    {
      "children": [
        1
      ],
      "matrix": [
        1.0,
        0.0,
        0.0,
        0.0,
        0.0,
        2.220446049250313e-16,
        -1.0,
        0.0,
        0.0,
        1.0,
        2.220446049250313e-16,
        0.0,
        0.0,
        0.0,
        0.0,
        1.0
      ],
      "name": "Sketchfab_model"
    },
    {
      "children": [
        2
      ],
      "name": "piston_full.obj.cleaner.materialmerger.gles"
    },
    {
      "mesh": 0,
      "name": "Object_2"
    }
  ],
  "scene": 0,
  "scenes": [
    {
      "name": "Sketchfab_Scene",
      "nodes": [
        0
      ]
    }
  ]
}
